<svg xmlns="http://www.w3.org/2000/svg" xmlns:xlink="http://www.w3.org/1999/xlink" width="500" zoomAndPan="magnify" viewBox="0 0 375 374.999991" height="500" preserveAspectRatio="xMidYMid meet" version="1.0"><defs><filter x="0%" y="0%" width="100%" height="100%" id="610cc7a18e"><feColorMatrix values="0 0 0 0 1 0 0 0 0 1 0 0 0 0 1 0 0 0 1 0" color-interpolation-filters="sRGB"/></filter><clipPath id="0e0db980da"><path d="M 65.605469 187 L 309.355469 187 L 309.355469 342.21875 L 65.605469 342.21875 Z M 65.605469 187 " clip-rule="nonzero"/></clipPath><mask id="363fc600f2"><g filter="url(#610cc7a18e)"><rect x="-37.5" width="450" fill="#000000" y="-37.499999" height="449.999989" fill-opacity="0.498"/></g></mask><clipPath id="fae2197d44"><path d="M 0.605469 8 L 236 8 L 236 155.21875 L 0.605469 155.21875 Z M 0.605469 8 " clip-rule="nonzero"/></clipPath><clipPath id="76fc40497e"><rect x="0" width="245" y="0" height="156"/></clipPath><clipPath id="b82c603242"><path d="M 98 32.46875 L 277 32.46875 L 277 210 L 98 210 Z M 98 32.46875 " clip-rule="nonzero"/></clipPath><mask id="66a497b4a7"><g filter="url(#610cc7a18e)"><rect x="-37.5" width="450" fill="#000000" y="-37.499999" height="449.999989" fill-opacity="0.498"/></g></mask><clipPath id="a87f3e36ba"><rect x="0" width="179" y="0" height="178"/></clipPath></defs><g clip-path="url(#0e0db980da)"><path fill="#545454" d="M 309.273438 309.03125 C 309.273438 310.117188 309.21875 311.203125 309.113281 312.285156 C 309.003906 313.367188 308.847656 314.441406 308.632812 315.507812 C 308.421875 316.574219 308.15625 317.625 307.839844 318.664062 C 307.527344 319.707031 307.160156 320.726562 306.742188 321.730469 C 306.328125 322.734375 305.863281 323.71875 305.351562 324.675781 C 304.835938 325.636719 304.277344 326.566406 303.675781 327.46875 C 303.070312 328.375 302.421875 329.246094 301.730469 330.085938 C 301.042969 330.925781 300.3125 331.730469 299.542969 332.5 C 298.773438 333.265625 297.96875 333.996094 297.128906 334.6875 C 296.285156 335.375 295.414062 336.023438 294.511719 336.625 C 293.605469 337.230469 292.671875 337.789062 291.714844 338.300781 C 290.753906 338.8125 289.773438 339.277344 288.765625 339.691406 C 287.761719 340.109375 286.738281 340.476562 285.699219 340.789062 C 284.65625 341.105469 283.601562 341.371094 282.535156 341.582031 C 281.46875 341.792969 280.394531 341.953125 279.3125 342.058594 C 278.230469 342.164062 277.144531 342.21875 276.054688 342.21875 L 98.90625 342.21875 C 97.820312 342.21875 96.734375 342.164062 95.652344 342.058594 C 94.570312 341.953125 93.496094 341.792969 92.429688 341.582031 C 91.359375 341.371094 90.308594 341.105469 89.265625 340.789062 C 88.226562 340.476562 87.203125 340.109375 86.195312 339.691406 C 85.191406 339.277344 84.210938 338.8125 83.25 338.300781 C 82.289062 337.789062 81.359375 337.230469 80.453125 336.625 C 79.550781 336.023438 78.675781 335.375 77.835938 334.6875 C 76.996094 333.996094 76.191406 333.265625 75.421875 332.5 C 74.652344 331.730469 73.921875 330.925781 73.230469 330.085938 C 72.542969 329.246094 71.894531 328.375 71.289062 327.46875 C 70.6875 326.566406 70.128906 325.636719 69.613281 324.675781 C 69.101562 323.71875 68.636719 322.734375 68.222656 321.730469 C 67.804688 320.726562 67.4375 319.707031 67.121094 318.664062 C 66.808594 317.625 66.542969 316.574219 66.332031 315.507812 C 66.117188 314.441406 65.960938 313.367188 65.851562 312.285156 C 65.746094 311.203125 65.691406 310.117188 65.691406 309.03125 C 65.691406 307.039062 65.742188 305.050781 65.839844 303.0625 C 65.9375 301.070312 66.082031 299.085938 66.277344 297.105469 C 66.472656 295.121094 66.71875 293.144531 67.011719 291.175781 C 67.304688 289.207031 67.644531 287.246094 68.03125 285.292969 C 68.421875 283.339844 68.859375 281.394531 69.34375 279.464844 C 69.828125 277.53125 70.359375 275.613281 70.9375 273.707031 C 71.515625 271.800781 72.140625 269.910156 72.8125 268.035156 C 73.484375 266.160156 74.199219 264.304688 74.964844 262.464844 C 75.726562 260.625 76.535156 258.804688 77.386719 257.003906 C 78.238281 255.203125 79.132812 253.425781 80.074219 251.667969 C 81.011719 249.914062 81.996094 248.179688 83.019531 246.472656 C 84.042969 244.765625 85.109375 243.082031 86.21875 241.425781 C 87.324219 239.769531 88.472656 238.140625 89.660156 236.542969 C 90.847656 234.941406 92.074219 233.375 93.335938 231.835938 C 94.601562 230.292969 95.902344 228.785156 97.242188 227.3125 C 98.582031 225.835938 99.953125 224.394531 101.363281 222.984375 C 102.773438 221.578125 104.214844 220.203125 105.691406 218.867188 C 107.171875 217.53125 108.679688 216.230469 110.21875 214.964844 C 111.761719 213.703125 113.332031 212.476562 114.933594 211.292969 C 116.53125 210.105469 118.164062 208.957031 119.820312 207.851562 C 121.476562 206.746094 123.160156 205.679688 124.871094 204.65625 C 126.578125 203.632812 128.3125 202.652344 130.070312 201.714844 C 131.828125 200.773438 133.609375 199.878906 135.410156 199.027344 C 137.210938 198.175781 139.035156 197.371094 140.875 196.605469 C 142.714844 195.84375 144.574219 195.128906 146.453125 194.457031 C 148.328125 193.785156 150.222656 193.164062 152.128906 192.585938 C 154.035156 192.007812 155.957031 191.476562 157.890625 190.992188 C 159.824219 190.507812 161.765625 190.070312 163.722656 189.683594 C 165.675781 189.292969 167.640625 188.953125 169.613281 188.660156 C 171.582031 188.371094 173.5625 188.125 175.542969 187.929688 C 177.527344 187.734375 179.515625 187.589844 181.507812 187.492188 C 183.496094 187.394531 185.488281 187.34375 187.480469 187.34375 C 189.476562 187.34375 191.46875 187.394531 193.457031 187.492188 C 195.449219 187.589844 197.4375 187.734375 199.417969 187.929688 C 201.402344 188.125 203.378906 188.371094 205.351562 188.660156 C 207.324219 188.953125 209.289062 189.292969 211.242188 189.683594 C 213.195312 190.070312 215.140625 190.507812 217.074219 190.992188 C 219.007812 191.476562 220.929688 192.007812 222.835938 192.585938 C 224.742188 193.164062 226.636719 193.785156 228.511719 194.457031 C 230.386719 195.128906 232.246094 195.84375 234.089844 196.605469 C 235.929688 197.371094 237.753906 198.175781 239.554688 199.027344 C 241.355469 199.878906 243.136719 200.773438 244.894531 201.714844 C 246.652344 202.652344 248.386719 203.632812 250.09375 204.65625 C 251.804688 205.679688 253.488281 206.746094 255.144531 207.851562 C 256.800781 208.957031 258.429688 210.105469 260.03125 211.292969 C 261.632812 212.476562 263.203125 213.703125 264.746094 214.964844 C 266.285156 216.230469 267.792969 217.53125 269.269531 218.867188 C 270.746094 220.203125 272.191406 221.578125 273.601562 222.984375 C 275.007812 224.394531 276.382812 225.835938 277.722656 227.3125 C 279.0625 228.785156 280.363281 230.292969 281.625 231.835938 C 282.890625 233.375 284.117188 234.941406 285.304688 236.542969 C 286.492188 238.140625 287.640625 239.769531 288.746094 241.425781 C 289.855469 243.082031 290.917969 244.765625 291.945312 246.472656 C 292.96875 248.179688 293.953125 249.914062 294.890625 251.667969 C 295.832031 253.425781 296.726562 255.203125 297.578125 257.003906 C 298.429688 258.804688 299.238281 260.625 300 262.464844 C 300.765625 264.304688 301.480469 266.160156 302.152344 268.035156 C 302.824219 269.910156 303.449219 271.800781 304.027344 273.707031 C 304.605469 275.613281 305.136719 277.53125 305.621094 279.464844 C 306.105469 281.394531 306.542969 283.339844 306.929688 285.292969 C 307.320312 287.246094 307.660156 289.207031 307.953125 291.175781 C 308.246094 293.144531 308.488281 295.121094 308.683594 297.105469 C 308.878906 299.085938 309.027344 301.070312 309.125 303.0625 C 309.222656 305.050781 309.273438 307.039062 309.273438 309.03125 Z M 309.273438 309.03125 " fill-opacity="1" fill-rule="nonzero"/><g mask="url(#363fc600f2)"><g transform="matrix(1, 0, 0, 1, 65, 187)"><g clip-path="url(#76fc40497e)"><g clip-path="url(#fae2197d44)"><path fill="#000000" d="M 235.855469 144.15625 C 234.296875 145.898438 232.570312 147.460938 230.679688 148.839844 C 228.789062 150.21875 226.777344 151.382812 224.640625 152.335938 C 222.503906 153.289062 220.289062 154.007812 218 154.496094 C 215.710938 154.980469 213.398438 155.222656 211.054688 155.21875 L 33.90625 155.21875 C 32.820312 155.21875 31.734375 155.164062 30.652344 155.058594 C 29.570312 154.953125 28.496094 154.792969 27.429688 154.582031 C 26.359375 154.371094 25.308594 154.105469 24.265625 153.789062 C 23.226562 153.476562 22.203125 153.109375 21.195312 152.691406 C 20.191406 152.277344 19.210938 151.8125 18.25 151.300781 C 17.289062 150.789062 16.359375 150.230469 15.453125 149.625 C 14.550781 149.023438 13.675781 148.375 12.835938 147.6875 C 11.996094 146.996094 11.191406 146.265625 10.421875 145.5 C 9.652344 144.730469 8.921875 143.925781 8.230469 143.085938 C 7.542969 142.246094 6.894531 141.375 6.289062 140.46875 C 5.6875 139.566406 5.128906 138.636719 4.613281 137.675781 C 4.101562 136.71875 3.636719 135.734375 3.222656 134.730469 C 2.804688 133.726562 2.4375 132.707031 2.121094 131.664062 C 1.808594 130.625 1.542969 129.574219 1.332031 128.507812 C 1.117188 127.441406 0.960938 126.367188 0.851562 125.285156 C 0.746094 124.203125 0.691406 123.117188 0.691406 122.03125 C 0.691406 118.964844 0.808594 115.902344 1.039062 112.84375 C 1.269531 109.785156 1.617188 106.738281 2.082031 103.707031 C 2.542969 100.671875 3.117188 97.660156 3.808594 94.671875 C 4.5 91.683594 5.300781 88.726562 6.214844 85.796875 C 7.128906 82.867188 8.152344 79.980469 9.285156 77.128906 C 10.417969 74.277344 11.65625 71.472656 13 68.714844 C 14.347656 65.957031 15.792969 63.253906 17.34375 60.605469 C 18.890625 57.957031 20.539062 55.371094 22.285156 52.847656 C 24.03125 50.324219 25.867188 47.871094 27.800781 45.484375 C 29.730469 43.101562 31.75 40.792969 33.855469 38.558594 C 35.960938 36.328125 38.148438 34.179688 40.414062 32.109375 C 42.683594 30.042969 45.027344 28.066406 47.445312 26.175781 C 49.863281 24.285156 52.347656 22.488281 54.902344 20.789062 C 57.457031 19.085938 60.070312 17.480469 62.746094 15.976562 C 65.421875 14.472656 68.152344 13.070312 70.933594 11.773438 C 73.714844 10.476562 76.542969 9.285156 79.414062 8.199219 C 77.257812 9.5625 75.144531 10.996094 73.082031 12.496094 C 71.015625 13.992188 68.996094 15.554688 67.03125 17.179688 C 65.0625 18.804688 63.148438 20.492188 61.285156 22.234375 C 59.425781 23.980469 57.621094 25.78125 55.871094 27.640625 C 54.125 29.5 52.4375 31.414062 50.808594 33.375 C 49.179688 35.339844 47.617188 37.355469 46.117188 39.417969 C 44.613281 41.480469 43.179688 43.589844 41.8125 45.742188 C 40.441406 47.894531 39.144531 50.089844 37.914062 52.324219 C 36.683594 54.558594 35.523438 56.832031 34.4375 59.136719 C 33.351562 61.445312 32.335938 63.785156 31.394531 66.15625 C 30.457031 68.527344 29.589844 70.925781 28.800781 73.351562 C 28.011719 75.777344 27.300781 78.226562 26.664062 80.695312 C 26.03125 83.164062 25.472656 85.652344 24.996094 88.160156 C 24.515625 90.664062 24.117188 93.179688 23.796875 95.710938 C 23.476562 98.242188 23.238281 100.78125 23.078125 103.324219 C 22.917969 105.871094 22.835938 108.417969 22.835938 110.96875 C 22.835938 112.054688 22.890625 113.140625 22.996094 114.222656 C 23.101562 115.304688 23.261719 116.378906 23.472656 117.445312 C 23.6875 118.511719 23.949219 119.5625 24.265625 120.601562 C 24.582031 121.644531 24.949219 122.664062 25.363281 123.667969 C 25.78125 124.671875 26.246094 125.65625 26.757812 126.613281 C 27.269531 127.574219 27.828125 128.503906 28.433594 129.40625 C 29.039062 130.3125 29.683594 131.183594 30.375 132.023438 C 31.066406 132.863281 31.796875 133.667969 32.566406 134.4375 C 33.332031 135.203125 34.140625 135.933594 34.980469 136.625 C 35.820312 137.3125 36.695312 137.960938 37.597656 138.5625 C 38.503906 139.167969 39.433594 139.726562 40.394531 140.238281 C 41.351562 140.75 42.335938 141.214844 43.339844 141.628906 C 44.34375 142.046875 45.367188 142.414062 46.410156 142.726562 C 47.449219 143.042969 48.503906 143.308594 49.570312 143.519531 C 50.636719 143.730469 51.714844 143.890625 52.796875 143.996094 C 53.878906 144.101562 54.964844 144.15625 56.050781 144.15625 L 233.199219 144.15625 C 234.085938 144.265625 234.972656 144.265625 235.855469 144.15625 Z M 235.855469 144.15625 " fill-opacity="1" fill-rule="nonzero"/></g></g></g></g></g><g clip-path="url(#b82c603242)"><path fill="#737373" d="M 276.054688 120.96875 C 276.054688 122.417969 276.019531 123.863281 275.949219 125.3125 C 275.878906 126.757812 275.773438 128.203125 275.628906 129.644531 C 275.488281 131.085938 275.308594 132.523438 275.097656 133.953125 C 274.886719 135.386719 274.636719 136.8125 274.355469 138.234375 C 274.070312 139.65625 273.753906 141.066406 273.402344 142.472656 C 273.050781 143.878906 272.664062 145.273438 272.242188 146.660156 C 271.820312 148.046875 271.367188 149.421875 270.878906 150.785156 C 270.390625 152.148438 269.867188 153.5 269.3125 154.835938 C 268.757812 156.175781 268.171875 157.5 267.550781 158.808594 C 266.933594 160.117188 266.28125 161.410156 265.597656 162.6875 C 264.914062 163.964844 264.199219 165.226562 263.453125 166.46875 C 262.710938 167.710938 261.933594 168.933594 261.128906 170.136719 C 260.324219 171.339844 259.488281 172.523438 258.625 173.6875 C 257.761719 174.851562 256.871094 175.992188 255.949219 177.113281 C 255.03125 178.234375 254.085938 179.328125 253.109375 180.402344 C 252.136719 181.476562 251.136719 182.523438 250.113281 183.546875 C 249.089844 184.574219 248.039062 185.570312 246.964844 186.542969 C 245.890625 187.515625 244.792969 188.460938 243.671875 189.378906 C 242.550781 190.300781 241.410156 191.191406 240.246094 192.054688 C 239.082031 192.914062 237.898438 193.75 236.691406 194.554688 C 235.484375 195.359375 234.261719 196.132812 233.019531 196.878906 C 231.773438 197.621094 230.515625 198.335938 229.234375 199.019531 C 227.957031 199.703125 226.664062 200.351562 225.351562 200.972656 C 224.042969 201.589844 222.71875 202.179688 221.378906 202.734375 C 220.039062 203.285156 218.6875 203.808594 217.320312 204.296875 C 215.957031 204.785156 214.582031 205.238281 213.195312 205.660156 C 211.808594 206.078125 210.410156 206.464844 209.003906 206.816406 C 207.597656 207.167969 206.183594 207.484375 204.761719 207.769531 C 203.339844 208.050781 201.914062 208.300781 200.480469 208.511719 C 199.042969 208.722656 197.605469 208.902344 196.164062 209.042969 C 194.722656 209.183594 193.277344 209.292969 191.828125 209.363281 C 190.378906 209.433594 188.933594 209.46875 187.480469 209.46875 C 186.03125 209.46875 184.582031 209.433594 183.136719 209.363281 C 181.6875 209.292969 180.242188 209.183594 178.800781 209.042969 C 177.359375 208.902344 175.917969 208.722656 174.484375 208.511719 C 173.050781 208.300781 171.625 208.050781 170.203125 207.769531 C 168.78125 207.484375 167.367188 207.167969 165.960938 206.816406 C 164.554688 206.464844 163.15625 206.078125 161.769531 205.660156 C 160.382812 205.238281 159.007812 204.785156 157.640625 204.296875 C 156.277344 203.808594 154.925781 203.285156 153.585938 202.734375 C 152.246094 202.179688 150.921875 201.589844 149.613281 200.972656 C 148.300781 200.351562 147.007812 199.703125 145.726562 199.019531 C 144.449219 198.335938 143.1875 197.621094 141.945312 196.878906 C 140.703125 196.132812 139.476562 195.359375 138.273438 194.554688 C 137.066406 193.75 135.882812 192.914062 134.71875 192.054688 C 133.554688 191.191406 132.410156 190.300781 131.292969 189.378906 C 130.171875 188.460938 129.074219 187.515625 128 186.542969 C 126.925781 185.570312 125.875 184.574219 124.851562 183.546875 C 123.824219 182.523438 122.828125 181.476562 121.851562 180.402344 C 120.878906 179.328125 119.933594 178.234375 119.011719 177.113281 C 118.09375 175.992188 117.203125 174.851562 116.339844 173.6875 C 115.476562 172.523438 114.640625 171.339844 113.835938 170.136719 C 113.03125 168.933594 112.253906 167.710938 111.507812 166.46875 C 110.765625 165.226562 110.050781 163.964844 109.367188 162.6875 C 108.683594 161.410156 108.03125 160.117188 107.410156 158.808594 C 106.792969 157.5 106.203125 156.175781 105.648438 154.835938 C 105.09375 153.5 104.574219 152.148438 104.085938 150.785156 C 103.597656 149.421875 103.140625 148.046875 102.722656 146.660156 C 102.300781 145.273438 101.914062 143.878906 101.5625 142.472656 C 101.210938 141.066406 100.890625 139.65625 100.609375 138.234375 C 100.328125 136.8125 100.078125 135.386719 99.867188 133.953125 C 99.652344 132.523438 99.476562 131.085938 99.335938 129.644531 C 99.191406 128.203125 99.085938 126.757812 99.015625 125.3125 C 98.945312 123.863281 98.90625 122.417969 98.90625 120.96875 C 98.90625 119.519531 98.945312 118.074219 99.015625 116.625 C 99.085938 115.179688 99.191406 113.734375 99.335938 112.292969 C 99.476562 110.851562 99.652344 109.417969 99.867188 107.984375 C 100.078125 106.550781 100.328125 105.125 100.609375 103.703125 C 100.890625 102.285156 101.210938 100.871094 101.5625 99.464844 C 101.914062 98.058594 102.300781 96.664062 102.722656 95.277344 C 103.140625 93.894531 103.597656 92.519531 104.085938 91.15625 C 104.574219 89.789062 105.09375 88.441406 105.648438 87.101562 C 106.203125 85.761719 106.792969 84.441406 107.410156 83.128906 C 108.03125 81.820312 108.683594 80.527344 109.367188 79.25 C 110.050781 77.972656 110.765625 76.714844 111.507812 75.472656 C 112.253906 74.230469 113.03125 73.003906 113.835938 71.800781 C 114.640625 70.597656 115.476562 69.414062 116.339844 68.25 C 117.203125 67.085938 118.09375 65.945312 119.011719 64.824219 C 119.933594 63.707031 120.878906 62.609375 121.851562 61.535156 C 122.828125 60.464844 123.824219 59.414062 124.851562 58.390625 C 125.875 57.367188 126.925781 56.367188 128 55.394531 C 129.074219 54.421875 130.171875 53.476562 131.292969 52.558594 C 132.410156 51.640625 133.554688 50.75 134.71875 49.886719 C 135.882812 49.023438 137.066406 48.1875 138.273438 47.382812 C 139.476562 46.578125 140.703125 45.804688 141.945312 45.058594 C 143.1875 44.316406 144.449219 43.601562 145.726562 42.917969 C 147.007812 42.238281 148.300781 41.585938 149.613281 40.964844 C 150.921875 40.347656 152.246094 39.761719 153.585938 39.207031 C 154.925781 38.652344 156.277344 38.128906 157.640625 37.644531 C 159.007812 37.15625 160.382812 36.699219 161.769531 36.28125 C 163.15625 35.859375 164.554688 35.472656 165.960938 35.121094 C 167.367188 34.769531 168.78125 34.453125 170.203125 34.167969 C 171.625 33.886719 173.050781 33.640625 174.484375 33.425781 C 175.917969 33.214844 177.359375 33.039062 178.800781 32.894531 C 180.242188 32.753906 181.6875 32.648438 183.136719 32.574219 C 184.582031 32.503906 186.03125 32.46875 187.480469 32.46875 C 188.933594 32.46875 190.378906 32.503906 191.828125 32.574219 C 193.277344 32.648438 194.722656 32.753906 196.164062 32.894531 C 197.605469 33.039062 199.042969 33.214844 200.480469 33.425781 C 201.914062 33.640625 203.339844 33.886719 204.761719 34.167969 C 206.183594 34.453125 207.597656 34.769531 209.003906 35.121094 C 210.410156 35.472656 211.808594 35.859375 213.195312 36.28125 C 214.582031 36.699219 215.957031 37.15625 217.320312 37.644531 C 218.6875 38.128906 220.039062 38.652344 221.378906 39.207031 C 222.71875 39.761719 224.042969 40.347656 225.351562 40.964844 C 226.664062 41.585938 227.957031 42.238281 229.234375 42.917969 C 230.515625 43.601562 231.773438 44.316406 233.019531 45.058594 C 234.261719 45.804688 235.484375 46.578125 236.691406 47.382812 C 237.898438 48.1875 239.082031 49.023438 240.246094 49.886719 C 241.410156 50.75 242.550781 51.640625 243.671875 52.558594 C 244.792969 53.476562 245.890625 54.421875 246.964844 55.394531 C 248.039062 56.367188 249.089844 57.367188 250.113281 58.390625 C 251.136719 59.414062 252.136719 60.464844 253.109375 61.535156 C 254.085938 62.609375 255.03125 63.707031 255.949219 64.824219 C 256.871094 65.945312 257.761719 67.085938 258.625 68.25 C 259.488281 69.414062 260.324219 70.597656 261.128906 71.800781 C 261.933594 73.003906 262.710938 74.230469 263.453125 75.472656 C 264.199219 76.714844 264.914062 77.972656 265.597656 79.25 C 266.28125 80.527344 266.933594 81.820312 267.550781 83.128906 C 268.171875 84.441406 268.757812 85.761719 269.3125 87.101562 C 269.867188 88.441406 270.390625 89.789062 270.878906 91.15625 C 271.367188 92.519531 271.820312 93.894531 272.242188 95.277344 C 272.664062 96.664062 273.050781 98.058594 273.402344 99.464844 C 273.753906 100.871094 274.070312 102.285156 274.355469 103.703125 C 274.636719 105.125 274.886719 106.550781 275.097656 107.984375 C 275.308594 109.417969 275.488281 110.851562 275.628906 112.292969 C 275.773438 113.734375 275.878906 115.179688 275.949219 116.625 C 276.019531 118.074219 276.054688 119.519531 276.054688 120.96875 Z M 276.054688 120.96875 " fill-opacity="1" fill-rule="nonzero"/></g><g mask="url(#66a497b4a7)"><g transform="matrix(1, 0, 0, 1, 87, 43)"><g clip-path="url(#a87f3e36ba)"><path fill="#545454" d="M 168.351562 134.71875 C 167.375 135.910156 166.367188 137.070312 165.328125 138.207031 C 164.289062 139.34375 163.222656 140.449219 162.128906 141.53125 C 161.03125 142.609375 159.90625 143.664062 158.757812 144.683594 C 157.605469 145.707031 156.429688 146.695312 155.226562 147.65625 C 154.023438 148.617188 152.796875 149.546875 151.546875 150.441406 C 150.296875 151.339844 149.023438 152.203125 147.726562 153.03125 C 146.429688 153.863281 145.113281 154.660156 143.773438 155.421875 C 142.4375 156.183594 141.082031 156.910156 139.707031 157.597656 C 138.328125 158.289062 136.9375 158.945312 135.527344 159.5625 C 134.117188 160.183594 132.691406 160.761719 131.253906 161.308594 C 129.8125 161.851562 128.359375 162.359375 126.894531 162.824219 C 125.425781 163.292969 123.949219 163.722656 122.460938 164.117188 C 120.972656 164.507812 119.472656 164.859375 117.964844 165.171875 C 116.457031 165.484375 114.945312 165.761719 113.421875 165.996094 C 111.902344 166.230469 110.375 166.421875 108.84375 166.578125 C 107.308594 166.734375 105.777344 166.847656 104.238281 166.921875 C 102.699219 167 101.160156 167.03125 99.621094 167.027344 C 98.082031 167.023438 96.542969 166.976562 95.007812 166.890625 C 93.46875 166.808594 91.933594 166.679688 90.40625 166.515625 C 88.875 166.351562 87.347656 166.144531 85.828125 165.902344 C 84.308594 165.65625 82.796875 165.371094 81.292969 165.046875 C 79.785156 164.726562 78.289062 164.363281 76.804688 163.960938 C 75.316406 163.558594 73.84375 163.121094 72.378906 162.640625 C 70.917969 162.164062 69.46875 161.648438 68.03125 161.09375 C 66.59375 160.539062 65.171875 159.949219 63.769531 159.320312 C 62.363281 158.691406 60.972656 158.027344 59.601562 157.328125 C 58.234375 156.628906 56.882812 155.890625 55.546875 155.121094 C 54.214844 154.351562 52.90625 153.546875 51.613281 152.707031 C 50.324219 151.867188 49.054688 150.996094 47.8125 150.089844 C 46.566406 149.1875 45.347656 148.25 44.148438 147.28125 C 42.953125 146.3125 41.785156 145.3125 40.640625 144.285156 C 39.496094 143.253906 38.378906 142.195312 37.289062 141.105469 C 36.203125 140.019531 35.144531 138.902344 34.113281 137.761719 C 33.082031 136.617188 32.082031 135.449219 31.113281 134.253906 C 30.144531 133.058594 29.207031 131.839844 28.300781 130.597656 C 27.394531 129.351562 26.519531 128.085938 25.679688 126.796875 C 24.84375 125.507812 24.035156 124.195312 23.265625 122.863281 C 22.492188 121.535156 21.757812 120.183594 21.058594 118.8125 C 20.355469 117.445312 19.691406 116.058594 19.0625 114.652344 C 18.433594 113.25 17.84375 111.828125 17.289062 110.394531 C 16.734375 108.957031 16.21875 107.511719 15.738281 106.046875 C 15.261719 104.585938 14.820312 103.113281 14.417969 101.628906 C 14.015625 100.140625 13.652344 98.648438 13.328125 97.144531 C 13.007812 95.640625 12.722656 94.128906 12.476562 92.609375 C 12.230469 91.089844 12.027344 89.566406 11.859375 88.039062 C 11.695312 86.507812 11.570312 84.976562 11.484375 83.441406 C 11.398438 81.902344 11.355469 80.367188 11.347656 78.828125 C 11.34375 77.289062 11.378906 75.753906 11.453125 74.214844 C 11.527344 72.679688 11.644531 71.148438 11.796875 69.617188 C 11.953125 68.085938 12.148438 66.558594 12.382812 65.039062 C 12.617188 63.519531 12.890625 62.007812 13.207031 60.5 C 13.519531 58.996094 13.871094 57.496094 14.261719 56.011719 C 14.65625 54.523438 15.085938 53.046875 15.554688 51.582031 C 16.023438 50.117188 16.53125 48.664062 17.074219 47.222656 C 17.617188 45.785156 18.199219 44.363281 18.820312 42.953125 C 19.4375 41.546875 20.09375 40.152344 20.785156 38.777344 C 21.476562 37.40625 22.203125 36.050781 22.964844 34.710938 C 23.726562 33.375 24.523438 32.058594 25.355469 30.765625 C 26.1875 29.46875 27.050781 28.199219 27.949219 26.949219 C 28.84375 25.699219 29.773438 24.472656 30.734375 23.269531 C 31.695312 22.070312 32.6875 20.894531 33.710938 19.742188 C 34.734375 18.59375 35.785156 17.472656 36.867188 16.375 C 37.949219 15.28125 39.058594 14.214844 40.195312 13.175781 C 41.332031 12.140625 42.496094 11.132812 43.683594 10.15625 C 42.820312 11.207031 41.980469 12.273438 41.167969 13.363281 C 40.355469 14.449219 39.566406 15.558594 38.800781 16.679688 C 38.039062 17.804688 37.304688 18.945312 36.59375 20.105469 C 35.882812 21.261719 35.199219 22.4375 34.542969 23.628906 C 33.886719 24.816406 33.257812 26.019531 32.65625 27.238281 C 32.054688 28.457031 31.484375 29.691406 30.9375 30.933594 C 30.394531 32.179688 29.878906 33.4375 29.394531 34.707031 C 28.90625 35.972656 28.453125 37.253906 28.023438 38.542969 C 27.597656 39.832031 27.199219 41.132812 26.832031 42.4375 C 26.464844 43.746094 26.128906 45.0625 25.820312 46.386719 C 25.515625 47.710938 25.238281 49.039062 24.992188 50.375 C 24.75 51.710938 24.535156 53.054688 24.351562 54.398438 C 24.167969 55.746094 24.015625 57.09375 23.894531 58.449219 C 23.769531 59.800781 23.679688 61.15625 23.621094 62.511719 C 23.5625 63.871094 23.535156 65.226562 23.539062 66.585938 C 23.542969 67.945312 23.578125 69.300781 23.644531 70.660156 C 23.710938 72.015625 23.808594 73.371094 23.9375 74.722656 C 24.066406 76.074219 24.226562 77.425781 24.417969 78.769531 C 24.605469 80.113281 24.828125 81.453125 25.082031 82.789062 C 25.332031 84.125 25.617188 85.453125 25.929688 86.773438 C 26.246094 88.09375 26.589844 89.410156 26.964844 90.714844 C 27.335938 92.019531 27.742188 93.316406 28.175781 94.605469 C 28.609375 95.894531 29.074219 97.167969 29.566406 98.433594 C 30.058594 99.703125 30.582031 100.957031 31.132812 102.199219 C 31.683594 103.4375 32.261719 104.667969 32.867188 105.882812 C 33.476562 107.097656 34.113281 108.300781 34.773438 109.484375 C 35.4375 110.671875 36.125 111.84375 36.84375 112.996094 C 37.558594 114.152344 38.300781 115.289062 39.070312 116.410156 C 39.839844 117.527344 40.636719 118.628906 41.457031 119.714844 C 42.273438 120.796875 43.121094 121.863281 43.988281 122.90625 C 44.855469 123.953125 45.75 124.976562 46.664062 125.980469 C 47.582031 126.984375 48.519531 127.964844 49.480469 128.925781 C 50.445312 129.886719 51.425781 130.824219 52.429688 131.742188 C 53.4375 132.65625 54.460938 133.546875 55.507812 134.414062 C 56.550781 135.285156 57.617188 136.128906 58.703125 136.945312 C 59.785156 137.765625 60.890625 138.558594 62.011719 139.328125 C 63.132812 140.097656 64.269531 140.839844 65.425781 141.554688 C 66.582031 142.269531 67.753906 142.960938 68.9375 143.621094 C 70.125 144.285156 71.328125 144.917969 72.542969 145.527344 C 73.761719 146.132812 74.992188 146.710938 76.234375 147.261719 C 77.476562 147.8125 78.730469 148.332031 80 148.824219 C 81.265625 149.316406 82.542969 149.78125 83.832031 150.214844 C 85.121094 150.648438 86.417969 151.050781 87.726562 151.425781 C 89.03125 151.800781 90.347656 152.144531 91.671875 152.457031 C 92.992188 152.773438 94.324219 153.054688 95.660156 153.308594 C 96.996094 153.558594 98.335938 153.78125 99.679688 153.972656 C 101.027344 154.164062 102.378906 154.320312 103.730469 154.449219 C 105.085938 154.578125 106.441406 154.675781 107.796875 154.742188 C 109.15625 154.808594 110.515625 154.84375 111.875 154.847656 C 113.234375 154.851562 114.59375 154.824219 115.953125 154.765625 C 117.308594 154.707031 118.664062 154.617188 120.019531 154.496094 C 121.375 154.371094 122.726562 154.21875 124.070312 154.039062 C 125.417969 153.855469 126.761719 153.640625 128.097656 153.394531 C 129.4375 153.148438 130.765625 152.875 132.089844 152.566406 C 133.417969 152.261719 134.734375 151.925781 136.042969 151.558594 C 137.351562 151.191406 138.652344 150.792969 139.941406 150.367188 C 141.230469 149.941406 142.511719 149.484375 143.78125 148.996094 C 145.050781 148.511719 146.308594 147.996094 147.554688 147.453125 C 148.800781 146.910156 150.035156 146.339844 151.253906 145.738281 C 152.472656 145.136719 153.679688 144.507812 154.871094 143.855469 C 156.0625 143.199219 157.234375 142.515625 158.394531 141.804688 C 159.554688 141.09375 160.695312 140.359375 161.820312 139.597656 C 162.945312 138.835938 164.054688 138.046875 165.144531 137.234375 C 166.230469 136.421875 167.300781 135.582031 168.351562 134.71875 Z M 168.351562 134.71875 " fill-opacity="1" fill-rule="nonzero"/></g></g></g></svg>