<svg xmlns="http://www.w3.org/2000/svg" xmlns:xlink="http://www.w3.org/1999/xlink" width="100" zoomAndPan="magnify" viewBox="0 0 75 74.999997" height="100" preserveAspectRatio="xMidYMid meet" version="1.0"><defs><clipPath id="0108229961"><path d="M 2.210938 2.210938 L 72.710938 2.210938 L 72.710938 72.710938 L 2.210938 72.710938 Z M 2.210938 2.210938 " clip-rule="nonzero"/></clipPath></defs><path fill="#d5d0ec" d="M 65.664062 37.460938 C 65.664062 53.035156 53.035156 65.664062 37.460938 65.664062 C 21.890625 65.664062 9.261719 53.035156 9.261719 37.460938 C 9.261719 21.890625 21.890625 9.261719 37.460938 9.261719 C 53.035156 9.261719 65.664062 21.890625 65.664062 37.460938 " fill-opacity="1" fill-rule="nonzero"/><g clip-path="url(#0108229961)"><path fill="#8484ca" d="M 37.460938 4.5625 C 19.320312 4.5625 4.5625 19.320312 4.5625 37.460938 C 4.5625 55.605469 19.320312 70.363281 37.460938 70.363281 C 55.605469 70.363281 70.363281 55.605469 70.363281 37.460938 C 70.363281 19.320312 55.605469 4.5625 37.460938 4.5625 Z M 37.460938 72.710938 C 18.023438 72.710938 2.210938 56.898438 2.210938 37.460938 C 2.210938 18.023438 18.023438 2.210938 37.460938 2.210938 C 56.898438 2.210938 72.710938 18.023438 72.710938 37.460938 C 72.710938 56.898438 56.898438 72.710938 37.460938 72.710938 " fill-opacity="1" fill-rule="nonzero"/></g><path fill="#5355af" d="M 37.460938 35.113281 C 29.5625 35.113281 22.972656 40.679688 21.382812 48.101562 C 25.019531 53.042969 30.859375 56.261719 37.460938 56.261719 C 44.066406 56.261719 49.90625 53.042969 53.539062 48.101562 C 51.953125 40.679688 45.363281 35.113281 37.460938 35.113281 " fill-opacity="1" fill-rule="nonzero"/><path fill="#8484ca" d="M 29.238281 26.886719 C 29.238281 31.429688 32.917969 35.113281 37.460938 35.113281 C 42.007812 35.113281 45.6875 31.429688 45.6875 26.886719 C 45.6875 22.34375 42.007812 18.664062 37.460938 18.664062 C 32.917969 18.664062 29.238281 22.34375 29.238281 26.886719 " fill-opacity="1" fill-rule="nonzero"/></svg>